<?xml version="1.0" encoding="UTF-8"?>
<svg width="24px" height="24px" viewBox="0 0 24 24" version="1.1" xmlns="http://www.w3.org/2000/svg" xmlns:xlink="http://www.w3.org/1999/xlink">
    <!-- Generator: Sketch 40.3 (33839) - http://www.bohemiancoding.com/sketch -->
    <title>tinyAppIcon</title>
    <desc>Created with Sketch.</desc>
    <defs>
        <linearGradient x1="50%" y1="0%" x2="50%" y2="100%" id="linearGradient-1">
            <stop stop-color="#FF7DAA" offset="0%"></stop>
            <stop stop-color="#FF4771" offset="100%"></stop>
        </linearGradient>
    </defs>
    <g id="website" stroke="none" stroke-width="1" fill="none" fill-rule="evenodd">
        <g id="Artboard-Copy" transform="translate(-200.000000, -78.000000)">
            <g id="tinyAppIcon" transform="translate(200.000000, 78.000000)">
                <path d="M18.28125,4.09093049e-16 C21.75,4.09093049e-16 24,2.25 24,5.71875 L24,18.28125 C24,21.75 21.75,24 18.28125,24 L5.71875,24 C2.25,24 0,21.75 0,18.28125 L0,5.71875 C0,2.25 2.25,4.09093051e-16 5.71875,4.09093051e-16 L18.28125,4.09093049e-16 Z" id="App-Icon-Shape" fill="url(#linearGradient-1)"></path>
                <path d="M12,21 C16.9705627,21 21,16.9705627 21,12 C21,7.02943725 16.9705627,3 12,3 C7.02943725,3 3,7.02943725 3,12 C3,16.9705627 7.02943725,21 12,21 Z M8.91685667,15.4982277 C8.6003386,15.0936224 8.6996977,14.9855467 9.15980852,15.2111634 C9.15980852,15.2111634 9.73060345,15.8034378 12.09375,15.796875 C14.424569,15.8034378 14.990078,15.2111634 14.990078,15.2111634 C15.4356597,14.9650993 15.5714411,15.1083038 15.2314802,15.4982277 C15.2314802,15.4982277 14.7931034,16.7327586 12.09375,16.734375 C9.36206897,16.7327586 8.91685667,15.4982277 8.91685667,15.4982277 Z M9.28125,11.71875 C9.79901695,11.71875 10.21875,11.0891504 10.21875,10.3125 C10.21875,9.53584957 9.79901695,8.90625 9.28125,8.90625 C8.76348305,8.90625 8.34375,9.53584957 8.34375,10.3125 C8.34375,11.0891504 8.76348305,11.71875 9.28125,11.71875 Z M14.71875,11.71875 C15.236517,11.71875 15.65625,11.0891504 15.65625,10.3125 C15.65625,9.53584957 15.236517,8.90625 14.71875,8.90625 C14.200983,8.90625 13.78125,9.53584957 13.78125,10.3125 C13.78125,11.0891504 14.200983,11.71875 14.71875,11.71875 Z" id="Combined-Shape" fill="#FFFFFF"></path>
            </g>
        </g>
    </g>
</svg>