<?xml version="1.0" encoding="UTF-8"?>
<svg width="16px" height="16px" viewBox="0 0 16 16" version="1.1" xmlns="http://www.w3.org/2000/svg" xmlns:xlink="http://www.w3.org/1999/xlink">
    <!-- Generator: Sketch 41.2 (35397) - http://www.bohemiancoding.com/sketch -->
    <title>external_link</title>
    <desc>Created with Sketch.</desc>
    <defs></defs>
    <g id="Page-1" stroke="none" stroke-width="1" fill="none" fill-rule="evenodd">
        <g id="Artboard-3-Copy-4" transform="translate(-1066.000000, -323.000000)" fill="#304FFE">
            <g id="Uplift-box-Copy" transform="translate(670.000000, 287.000000)">
                <path d="M410.222222,50.2222222 L397.777778,50.2222222 L397.777778,37.7777778 L404,37.7777778 L404,36 L397.777778,36 C396.791111,36 396,36.8 396,37.7777778 L396,50.2222222 C396,51.2 396.791111,52 397.777778,52 L410.222222,52 C411.2,52 412,51.2 412,50.2222222 L412,44 L410.222222,44 L410.222222,50.2222222 L410.222222,50.2222222 Z M405.777778,36 L405.777778,37.7777778 L408.968889,37.7777778 L400.231111,46.5155556 L401.484444,47.7688889 L410.222222,39.0311111 L410.222222,42.2222222 L412,42.2222222 L412,36 L405.777778,36 L405.777778,36 Z" id="external_link"></path>
            </g>
        </g>
    </g>
</svg>